<mxfile host="app.diagrams.net" modified="2022-11-22T15:03:05.804Z" agent="5.0 (Windows NT 10.0; Win64; x64) AppleWebKit/537.36 (KHTML, like Gecko) Chrome/107.0.0.0 Safari/537.36" etag="BV39VpZLeFZmP6tjEn_i" version="20.5.3" type="github">
  <diagram id="LNnTfOEJSKcL_ior64ZP" name="第 1 页">
    <mxGraphModel dx="1278" dy="483" grid="1" gridSize="10" guides="1" tooltips="1" connect="1" arrows="1" fold="1" page="1" pageScale="1" pageWidth="827" pageHeight="1169" math="0" shadow="0">
      <root>
        <mxCell id="0" />
        <mxCell id="1" parent="0" />
        <mxCell id="EnyxKR-7z9amKclWNWPe-5" value="" style="edgeStyle=orthogonalEdgeStyle;rounded=0;orthogonalLoop=1;jettySize=auto;html=1;" parent="1" source="EnyxKR-7z9amKclWNWPe-1" target="EnyxKR-7z9amKclWNWPe-4" edge="1">
          <mxGeometry relative="1" as="geometry" />
        </mxCell>
        <mxCell id="EnyxKR-7z9amKclWNWPe-1" value="START" style="ellipse;whiteSpace=wrap;html=1;" parent="1" vertex="1">
          <mxGeometry x="354" y="10" width="120" height="30" as="geometry" />
        </mxCell>
        <mxCell id="EnyxKR-7z9amKclWNWPe-7" value="" style="edgeStyle=orthogonalEdgeStyle;rounded=0;orthogonalLoop=1;jettySize=auto;html=1;" parent="1" source="EnyxKR-7z9amKclWNWPe-4" target="EnyxKR-7z9amKclWNWPe-6" edge="1">
          <mxGeometry relative="1" as="geometry" />
        </mxCell>
        <mxCell id="EnyxKR-7z9amKclWNWPe-4" value="選取商品" style="whiteSpace=wrap;html=1;" parent="1" vertex="1">
          <mxGeometry x="381" y="60" width="66" height="20" as="geometry" />
        </mxCell>
        <mxCell id="EnyxKR-7z9amKclWNWPe-14" value="" style="edgeStyle=orthogonalEdgeStyle;rounded=0;orthogonalLoop=1;jettySize=auto;html=1;" parent="1" source="EnyxKR-7z9amKclWNWPe-6" target="EnyxKR-7z9amKclWNWPe-13" edge="1">
          <mxGeometry relative="1" as="geometry" />
        </mxCell>
        <mxCell id="EnyxKR-7z9amKclWNWPe-18" value="" style="edgeStyle=orthogonalEdgeStyle;rounded=0;orthogonalLoop=1;jettySize=auto;html=1;" parent="1" source="EnyxKR-7z9amKclWNWPe-6" target="EnyxKR-7z9amKclWNWPe-17" edge="1">
          <mxGeometry relative="1" as="geometry" />
        </mxCell>
        <mxCell id="EnyxKR-7z9amKclWNWPe-6" value="是否需要" style="rhombus;whiteSpace=wrap;html=1;" parent="1" vertex="1">
          <mxGeometry x="374" y="100" width="80" height="50" as="geometry" />
        </mxCell>
        <mxCell id="EnyxKR-7z9amKclWNWPe-20" value="" style="edgeStyle=orthogonalEdgeStyle;rounded=0;orthogonalLoop=1;jettySize=auto;html=1;" parent="1" source="EnyxKR-7z9amKclWNWPe-13" target="EnyxKR-7z9amKclWNWPe-19" edge="1">
          <mxGeometry relative="1" as="geometry" />
        </mxCell>
        <mxCell id="EnyxKR-7z9amKclWNWPe-13" value="Y" style="ellipse;whiteSpace=wrap;html=1;" parent="1" vertex="1">
          <mxGeometry x="474" y="110" width="30" height="30" as="geometry" />
        </mxCell>
        <mxCell id="EnyxKR-7z9amKclWNWPe-53" value="" style="edgeStyle=orthogonalEdgeStyle;rounded=0;orthogonalLoop=1;jettySize=auto;html=1;" parent="1" source="EnyxKR-7z9amKclWNWPe-17" target="EnyxKR-7z9amKclWNWPe-52" edge="1">
          <mxGeometry relative="1" as="geometry" />
        </mxCell>
        <mxCell id="EnyxKR-7z9amKclWNWPe-17" value="N" style="ellipse;whiteSpace=wrap;html=1;" parent="1" vertex="1">
          <mxGeometry x="300" y="107.5" width="34" height="35" as="geometry" />
        </mxCell>
        <mxCell id="EnyxKR-7z9amKclWNWPe-24" value="" style="edgeStyle=orthogonalEdgeStyle;rounded=0;orthogonalLoop=1;jettySize=auto;html=1;" parent="1" source="EnyxKR-7z9amKclWNWPe-19" target="EnyxKR-7z9amKclWNWPe-23" edge="1">
          <mxGeometry relative="1" as="geometry" />
        </mxCell>
        <mxCell id="EnyxKR-7z9amKclWNWPe-19" value="存入Shop陣列&lt;br&gt;(購物車)" style="whiteSpace=wrap;html=1;" parent="1" vertex="1">
          <mxGeometry x="530" y="107.5" width="120" height="35" as="geometry" />
        </mxCell>
        <mxCell id="EnyxKR-7z9amKclWNWPe-28" value="" style="edgeStyle=orthogonalEdgeStyle;rounded=0;orthogonalLoop=1;jettySize=auto;html=1;" parent="1" source="EnyxKR-7z9amKclWNWPe-23" target="EnyxKR-7z9amKclWNWPe-27" edge="1">
          <mxGeometry relative="1" as="geometry" />
        </mxCell>
        <mxCell id="EnyxKR-7z9amKclWNWPe-23" value="輸出商品&lt;br&gt;名稱、數量、價格&lt;br&gt;farm_id、pid、resume_id" style="shape=parallelogram;perimeter=parallelogramPerimeter;whiteSpace=wrap;html=1;fixedSize=1;" parent="1" vertex="1">
          <mxGeometry x="495" y="160" width="190" height="60" as="geometry" />
        </mxCell>
        <mxCell id="EnyxKR-7z9amKclWNWPe-30" value="" style="edgeStyle=orthogonalEdgeStyle;rounded=0;orthogonalLoop=1;jettySize=auto;html=1;" parent="1" source="EnyxKR-7z9amKclWNWPe-27" target="EnyxKR-7z9amKclWNWPe-29" edge="1">
          <mxGeometry relative="1" as="geometry" />
        </mxCell>
        <mxCell id="EnyxKR-7z9amKclWNWPe-57" value="" style="edgeStyle=orthogonalEdgeStyle;rounded=0;orthogonalLoop=1;jettySize=auto;html=1;" parent="1" source="EnyxKR-7z9amKclWNWPe-27" target="EnyxKR-7z9amKclWNWPe-56" edge="1">
          <mxGeometry relative="1" as="geometry" />
        </mxCell>
        <mxCell id="EnyxKR-7z9amKclWNWPe-27" value="透過get&amp;nbsp; 到明細頁面" style="whiteSpace=wrap;html=1;" parent="1" vertex="1">
          <mxGeometry x="530" y="243.75" width="120" height="30" as="geometry" />
        </mxCell>
        <mxCell id="EnyxKR-7z9amKclWNWPe-36" style="edgeStyle=orthogonalEdgeStyle;rounded=0;orthogonalLoop=1;jettySize=auto;html=1;" parent="1" source="EnyxKR-7z9amKclWNWPe-29" target="EnyxKR-7z9amKclWNWPe-35" edge="1">
          <mxGeometry relative="1" as="geometry" />
        </mxCell>
        <mxCell id="EnyxKR-7z9amKclWNWPe-29" value="刪除" style="ellipse;whiteSpace=wrap;html=1;" parent="1" vertex="1">
          <mxGeometry x="680" y="240" width="40" height="37.5" as="geometry" />
        </mxCell>
        <mxCell id="EnyxKR-7z9amKclWNWPe-35" value="刪除商品資訊" style="whiteSpace=wrap;html=1;" parent="1" vertex="1">
          <mxGeometry x="740" y="243.75" width="80" height="30" as="geometry" />
        </mxCell>
        <mxCell id="EnyxKR-7z9amKclWNWPe-52" value="從陣列POP出去" style="whiteSpace=wrap;html=1;" parent="1" vertex="1">
          <mxGeometry x="140" y="112.5" width="120" height="25" as="geometry" />
        </mxCell>
        <mxCell id="EnyxKR-7z9amKclWNWPe-59" value="" style="edgeStyle=orthogonalEdgeStyle;rounded=0;orthogonalLoop=1;jettySize=auto;html=1;" parent="1" source="EnyxKR-7z9amKclWNWPe-56" target="EnyxKR-7z9amKclWNWPe-58" edge="1">
          <mxGeometry relative="1" as="geometry" />
        </mxCell>
        <mxCell id="EnyxKR-7z9amKclWNWPe-56" value="輸入會員資料" style="shape=parallelogram;perimeter=parallelogramPerimeter;whiteSpace=wrap;html=1;fixedSize=1;" parent="1" vertex="1">
          <mxGeometry x="530" y="300" width="120" height="30" as="geometry" />
        </mxCell>
        <mxCell id="EnyxKR-7z9amKclWNWPe-61" value="" style="edgeStyle=orthogonalEdgeStyle;rounded=0;orthogonalLoop=1;jettySize=auto;html=1;" parent="1" source="EnyxKR-7z9amKclWNWPe-58" target="EnyxKR-7z9amKclWNWPe-60" edge="1">
          <mxGeometry relative="1" as="geometry" />
        </mxCell>
        <mxCell id="EnyxKR-7z9amKclWNWPe-58" value="按下打折btn&lt;br&gt;總金額打九折&lt;br&gt;及扣除扣點調整&lt;br&gt;和手動調整金額" style="whiteSpace=wrap;html=1;" parent="1" vertex="1">
          <mxGeometry x="540" y="360" width="100" height="75" as="geometry" />
        </mxCell>
        <mxCell id="EnyxKR-7z9amKclWNWPe-63" value="" style="edgeStyle=orthogonalEdgeStyle;rounded=0;orthogonalLoop=1;jettySize=auto;html=1;" parent="1" source="EnyxKR-7z9amKclWNWPe-60" target="EnyxKR-7z9amKclWNWPe-62" edge="1">
          <mxGeometry relative="1" as="geometry" />
        </mxCell>
        <mxCell id="EnyxKR-7z9amKclWNWPe-60" value="按下結帳btn" style="whiteSpace=wrap;html=1;" parent="1" vertex="1">
          <mxGeometry x="545" y="460" width="90" height="20" as="geometry" />
        </mxCell>
        <mxCell id="EnyxKR-7z9amKclWNWPe-65" value="" style="edgeStyle=orthogonalEdgeStyle;rounded=0;orthogonalLoop=1;jettySize=auto;html=1;" parent="1" source="EnyxKR-7z9amKclWNWPe-62" target="EnyxKR-7z9amKclWNWPe-64" edge="1">
          <mxGeometry relative="1" as="geometry" />
        </mxCell>
        <mxCell id="EnyxKR-7z9amKclWNWPe-62" value="傳送會員資料、商品&lt;br&gt;名稱、數量、價格&lt;br&gt;farm_id、pid、resume_id&lt;br&gt;至結帳頁面" style="whiteSpace=wrap;html=1;" parent="1" vertex="1">
          <mxGeometry x="337" y="422.5" width="154" height="95" as="geometry" />
        </mxCell>
        <mxCell id="EnyxKR-7z9amKclWNWPe-67" value="" style="edgeStyle=orthogonalEdgeStyle;rounded=0;orthogonalLoop=1;jettySize=auto;html=1;" parent="1" source="EnyxKR-7z9amKclWNWPe-64" target="EnyxKR-7z9amKclWNWPe-66" edge="1">
          <mxGeometry relative="1" as="geometry" />
        </mxCell>
        <mxCell id="EnyxKR-7z9amKclWNWPe-64" value="更新資料庫" style="whiteSpace=wrap;html=1;" parent="1" vertex="1">
          <mxGeometry x="371" y="560" width="86" height="30" as="geometry" />
        </mxCell>
        <mxCell id="EnyxKR-7z9amKclWNWPe-66" value="END" style="ellipse;whiteSpace=wrap;html=1;" parent="1" vertex="1">
          <mxGeometry x="354" y="640" width="120" height="25" as="geometry" />
        </mxCell>
      </root>
    </mxGraphModel>
  </diagram>
</mxfile>
